<?xml version='1.0' encoding='utf-8'?>
<!DOCTYPE svg PUBLIC '-//W3C//DTD SVG 1.1//EN' 'http://www.w3.org/Graphics/SVG/1.1/DTD/svg11.dtd'>
<!-- Uploaded to: SVG Repo, www.svgrepo.com, Generator: SVG Repo Mixer Tools -->
<svg fill="#FFFFFF" height="24" width="24" version="1.1" xmlns="http://www.w3.org/2000/svg" viewBox="0 0 512 512" xmlns:xlink="http://www.w3.org/1999/xlink" enable-background="new 0 0 512 512">
    <g>
        <path d="m480,271.4c-3.7-43-38.8-78.1-81.9-76.7v-79.3c0-9.4-6.5-17.6-15.7-19.8-44.7-10.7-114.7-38.1-164.8-79.8-6.5-5.4-15.7-6.3-23.1-2.1-35.5,20.1-134.9,73.9-167.8,81.8-9.2,2.3-15.7,10.5-15.7,19.9v171.3c0,118.2 86.8,214.3 193.6,214.3 48.6,0 95-20 130.8-56.3 1.7-1.7 3-3.7 4-5.8h141.2c11.3,0 20.4-9.1 20.4-20.4v-126.7c-1.2-20.5-21-20.4-21-20.4zm-41.1,0h-76.4c3.2-20.4 19.1-35.9 38.2-35.9 19.1,2.84217e-14 35,15.5 38.2,35.9zm-387.1,15.3v-156.3c43.8-15.9 120.1-57.4 150.8-74.5 48.4,36.9 108.3,62.1 154.7,75.2v77.2c-34.2,24.2-36.5,63.1-36.5,63.1-11.3,0-20.4,9.1-20.4,20.4 0,0 0.1,128.7 0.2,129.7-27.1,25-61,38.7-96.1,38.7-84.1,0-152.7-77.8-152.7-173.5zm408.4,111.4h-119v-85.8h118.9v85.8z"/>
    </g>
</svg>